<svg width="840" height="520" viewBox="0 0 840 520" fill="none" xmlns="http://www.w3.org/2000/svg">
  <!-- Window Background -->
  <rect width="840" height="520" rx="16" fill="#F6F6F3" stroke="#16192B" stroke-opacity="0.12" stroke-width="2"/>
  
  <!-- Browser Chrome / Top Bar -->
  <rect width="840" height="42" rx="16" fill="#FFFFFF"/>
  <rect y="40" width="840" height="2" fill="#16192B" fill-opacity="0.08"/>
  <circle cx="24" cy="21" r="5.5" fill="#E1512C" fill-opacity="0.8"/>
  <circle cx="40" cy="21" r="5.5" fill="#EAB13A" fill-opacity="0.8"/>
  <circle cx="56" cy="21" r="5.5" fill="#0E8F82" fill-opacity="0.8"/>
  <rect x="220" y="10" width="400" height="22" rx="6" fill="#F6F6F3" stroke="#16192B" stroke-opacity="0.08"/>
  <text x="420" y="25" font-family="-apple-system, BlinkMacSystemFont, 'Segoe UI', sans-serif" font-size="11" fill="#5B6072" text-anchor="middle">localhost:5173/dashboard</text>

  <!-- Navigation Header -->
  <rect y="42" width="840" height="54" fill="#FFFFFF" stroke="#16192B" stroke-opacity="0.06"/>
  <!-- Logo Mark -->
  <rect x="32" y="56" width="22" height="22" rx="6" fill="#0E8F82"/>
  <path d="M42 56H48C51.3137 56 54 58.6863 54 62V72C54 75.3137 51.3137 78 48 78H42V56Z" fill="#16192B"/>
  <text x="62" y="72" font-family="'Space Grotesk', -apple-system, sans-serif" font-size="17" font-weight="700" fill="#16192B">Deadline<tspan fill="#0E8F82">Buffer</tspan></text>
  
  <!-- Header Right Actions -->
  <rect x="580" y="55" width="100" height="28" rx="8" fill="#DAF0EC"/>
  <text x="630" y="73" font-family="-apple-system, sans-serif" font-size="11" font-weight="600" fill="#0E8F82" text-anchor="middle">How it works</text>
  <rect x="690" y="55" width="118" height="28" rx="8" fill="#FFFFFF" stroke="#16192B" stroke-opacity="0.15"/>
  <text x="749" y="73" font-family="-apple-system, sans-serif" font-size="11" font-weight="500" fill="#16192B" text-anchor="middle">glenp · Sign out</text>

  <!-- Metric Stat Cards -->
  <!-- Card 1 -->
  <rect x="32" y="116" width="180" height="74" rx="12" fill="#FFFFFF" stroke="#16192B" stroke-opacity="0.08"/>
  <text x="48" y="138" font-family="-apple-system, sans-serif" font-size="11" font-weight="500" fill="#5B6072">Active Tasks</text>
  <text x="48" y="166" font-family="'Space Grotesk', sans-serif" font-size="22" font-weight="700" fill="#16192B">5</text>
  <text x="48" y="180" font-family="-apple-system, sans-serif" font-size="10" fill="#0E8F82">across 3 projects</text>

  <!-- Card 2 -->
  <rect x="228" y="116" width="180" height="74" rx="12" fill="#FFFFFF" stroke="#16192B" stroke-opacity="0.08"/>
  <text x="244" y="138" font-family="-apple-system, sans-serif" font-size="11" font-weight="500" fill="#5B6072">Completed</text>
  <text x="244" y="166" font-family="'Space Grotesk', sans-serif" font-size="22" font-weight="700" fill="#16192B">12</text>
  <text x="244" y="180" font-family="-apple-system, sans-serif" font-size="10" fill="#5B6072">71% completion rate</text>

  <!-- Card 3 -->
  <rect x="424" y="116" width="180" height="74" rx="12" fill="#FFFFFF" stroke="#16192B" stroke-opacity="0.08"/>
  <text x="440" y="138" font-family="-apple-system, sans-serif" font-size="11" font-weight="500" fill="#5B6072">Hours Needed</text>
  <text x="440" y="166" font-family="'Space Grotesk', sans-serif" font-size="22" font-weight="700" fill="#16192B">16.5h</text>
  <text x="440" y="180" font-family="-apple-system, sans-serif" font-size="10" fill="#5B6072">estimated work left</text>

  <!-- Card 4: Buffer Health -->
  <rect x="620" y="116" width="188" height="74" rx="12" fill="#DAF0EC" stroke="#0E8F82" stroke-opacity="0.3"/>
  <text x="636" y="138" font-family="-apple-system, sans-serif" font-size="11" font-weight="600" fill="#0E8F82">Buffer Health</text>
  <text x="636" y="166" font-family="'Space Grotesk', sans-serif" font-size="22" font-weight="700" fill="#0E8F82">86%</text>
  <text x="636" y="180" font-family="-apple-system, sans-serif" font-size="10" font-weight="500" fill="#0E8F82">Safe study buffer ✓</text>

  <!-- Urgent Assignments Header -->
  <text x="32" y="222" font-family="'Space Grotesk', sans-serif" font-size="15" font-weight="700" fill="#16192B">Upcoming Start Dates</text>
  <text x="200" y="222" font-family="-apple-system, sans-serif" font-size="11" fill="#5B6072">Start-by dates calculated with safety buffers</text>

  <!-- Urgent Task Card 1 -->
  <rect x="32" y="236" width="374" height="110" rx="12" fill="#FFFFFF" stroke="#16192B" stroke-opacity="0.08"/>
  <text x="48" y="262" font-family="-apple-system, sans-serif" font-size="13" font-weight="600" fill="#16192B">Senior Thesis Chapter 2</text>
  <rect x="48" y="272" width="58" height="16" rx="4" fill="#FBE3DA"/>
  <text x="77" y="284" font-family="-apple-system, sans-serif" font-size="9" font-weight="700" fill="#E1512C" text-anchor="middle">HIGH</text>
  <text x="114" y="284" font-family="-apple-system, sans-serif" font-size="11" fill="#5B6072">6h · Capstone Thesis</text>
  <!-- Buffer Bar visual -->
  <rect x="48" y="298" width="338" height="6" rx="3" fill="#EBEAE5"/>
  <rect x="48" y="298" width="210" height="6" rx="3" fill="#0E8F82"/>
  <rect x="258" y="298" width="128" height="6" rx="3" fill="#EAB13A"/>
  <text x="48" y="324" font-family="-apple-system, sans-serif" font-size="10" font-weight="600" fill="#0E8F82">Start by Sep 24</text>
  <text x="386" y="324" font-family="-apple-system, sans-serif" font-size="10" fill="#5B6072" text-anchor="end">Due Sep 30</text>

  <!-- Urgent Task Card 2 -->
  <rect x="424" y="236" width="384" height="110" rx="12" fill="#FFFFFF" stroke="#16192B" stroke-opacity="0.08"/>
  <text x="440" y="262" font-family="-apple-system, sans-serif" font-size="13" font-weight="600" fill="#16192B">Group Slide Deck &amp; Citations</text>
  <rect x="440" y="272" width="70" height="16" rx="4" fill="#FBEECD"/>
  <text x="475" y="284" font-family="-apple-system, sans-serif" font-size="9" font-weight="700" fill="#8C6314" text-anchor="middle">MEDIUM</text>
  <text x="518" y="284" font-family="-apple-system, sans-serif" font-size="11" fill="#5B6072">4h · Assigned to Alex</text>
  <!-- Buffer Bar visual -->
  <rect x="440" y="298" width="348" height="6" rx="3" fill="#EBEAE5"/>
  <rect x="440" y="298" width="140" height="6" rx="3" fill="#0E8F82"/>
  <rect x="580" y="298" width="208" height="6" rx="3" fill="#E1512C"/>
  <text x="440" y="324" font-family="-apple-system, sans-serif" font-size="10" font-weight="700" fill="#E1512C">Start soon — Sep 22</text>
  <text x="788" y="324" font-family="-apple-system, sans-serif" font-size="10" fill="#5B6072" text-anchor="end">Due Sep 26</text>

  <!-- Projects Header & Action -->
  <text x="32" y="380" font-family="'Space Grotesk', sans-serif" font-size="15" font-weight="700" fill="#16192B">Your Projects</text>
  <rect x="710" y="362" width="98" height="26" rx="8" fill="#16192B"/>
  <text x="759" y="379" font-family="-apple-system, sans-serif" font-size="11" font-weight="600" fill="#FFFFFF" text-anchor="middle">+ New Project</text>

  <!-- Project 1 Card -->
  <rect x="32" y="396" width="374" height="100" rx="12" fill="#FFFFFF" stroke="#16192B" stroke-opacity="0.08"/>
  <text x="48" y="422" font-family="'Space Grotesk', sans-serif" font-size="14" font-weight="700" fill="#16192B">PHYS 201 Lab Reports</text>
  <rect x="330" y="410" width="56" height="18" rx="9" fill="#DAF0EC"/>
  <text x="358" y="423" font-family="-apple-system, sans-serif" font-size="9" font-weight="600" fill="#0E8F82" text-anchor="middle">Solo</text>
  <text x="48" y="442" font-family="-apple-system, sans-serif" font-size="11" fill="#5B6072">Weekly experimental analysis and error logs</text>
  <rect x="48" y="460" width="338" height="6" rx="3" fill="#EBEAE5"/>
  <rect x="48" y="460" width="225" height="6" rx="3" fill="#0E8F82"/>
  <text x="48" y="482" font-family="-apple-system, sans-serif" font-size="10" fill="#5B6072">3 of 4 tasks done (75%)</text>
  <text x="386" y="482" font-family="-apple-system, sans-serif" font-size="10" font-weight="500" fill="#0E8F82" text-anchor="end">Next: Oct 02</text>

  <!-- Project 2 Card -->
  <rect x="424" y="396" width="384" height="100" rx="12" fill="#FFFFFF" stroke="#16192B" stroke-opacity="0.08"/>
  <text x="440" y="422" font-family="'Space Grotesk', sans-serif" font-size="14" font-weight="700" fill="#16192B">CWA Capstone Presentation</text>
  <rect x="734" y="410" width="60" height="18" rx="9" fill="#FBEECD"/>
  <text x="764" y="423" font-family="-apple-system, sans-serif" font-size="9" font-weight="600" fill="#8C6314" text-anchor="middle">Group (3)</text>
  <text x="440" y="442" font-family="-apple-system, sans-serif" font-size="11" fill="#5B6072">Final team presentation &amp; technical report</text>
  <rect x="440" y="460" width="348" height="6" rx="3" fill="#EBEAE5"/>
  <rect x="440" y="460" width="139" height="6" rx="3" fill="#0E8F82"/>
  <text x="440" y="482" font-family="-apple-system, sans-serif" font-size="10" fill="#5B6072">2 of 5 tasks done (40%)</text>
  <text x="788" y="482" font-family="-apple-system, sans-serif" font-size="10" font-weight="500" fill="#E1512C" text-anchor="end">Next: Sep 26</text>
</svg>
